<svg width="30" height="30" viewBox="0 0 30 30" fill="none" xmlns="http://www.w3.org/2000/svg">
<path fill-rule="evenodd" clip-rule="evenodd" d="M9.33337 7.85713C9.33337 5.49019 11.508 3.57141 14.1905 3.57141H15.8096C18.4921 3.57141 20.6667 5.49019 20.6667 7.85713H23.9048C25.6931 7.85713 27.1429 9.13631 27.1429 10.7143V14.2857H2.85718V10.7143C2.85718 9.13631 4.30692 7.85713 6.09527 7.85713H9.33337ZM2.85718 17.1428H27.1429V25.1428C27.1429 26.2474 26.2475 27.1428 25.1429 27.1428H4.85718C3.75261 27.1428 2.85718 26.2474 2.85718 25.1428V17.1428ZM15.8096 5.71427C17.1508 5.71427 18.2381 6.67366 18.2381 7.85713H11.7619C11.7619 6.67366 12.8492 5.71427 14.1905 5.71427H15.8096Z" fill="#023E73"/>
</svg>
