<svg width="21" height="21" viewBox="0 0 21 21" fill="none" xmlns="http://www.w3.org/2000/svg">
<path fill-rule="evenodd" clip-rule="evenodd" d="M12.6214 10.5L16.5104 6.61095C17.0962 6.02517 17.0962 5.07542 16.5104 4.48963C15.9247 3.90385 14.9749 3.90385 14.3891 4.48963L10.5 8.37872L6.61095 4.48963C6.02517 3.90385 5.07542 3.90385 4.48963 4.48963C3.90385 5.07542 3.90385 6.02517 4.48963 6.61095L8.37872 10.5L4.48963 14.3891C3.90385 14.9749 3.90385 15.9247 4.48963 16.5104C5.07542 17.0962 6.02517 17.0962 6.61095 16.5104L10.5 12.6214L14.3891 16.5104C14.9749 17.0962 15.9247 17.0962 16.5104 16.5104C17.0962 15.9247 17.0962 14.9749 16.5104 14.3891L12.6214 10.5Z" fill="#023E73"/>
</svg>
