<svg width="21" height="21" viewBox="0 0 21 21" fill="none" xmlns="http://www.w3.org/2000/svg">
<path fill-rule="evenodd" clip-rule="evenodd" d="M20.8116 9.9166C17.6606 5.63887 14.7076 3.5 10.5 3.5C6.29244 3.5 3.33941 5.63887 0.188388 9.91662C-0.0627987 10.2576 -0.0627985 10.7424 0.188403 11.0834C3.33942 15.3611 6.29244 17.5 10.5 17.5C14.7076 17.5 17.6606 15.3611 20.8116 11.0834C21.0628 10.7424 21.0628 10.2576 20.8116 9.9166ZM6.29244 10.5C6.29244 12.8196 8.17623 14.7 10.5 14.7C12.8238 14.7 14.7076 12.8196 14.7076 10.5C14.7076 8.1804 12.8238 6.3 10.5 6.3C8.17623 6.3 6.29244 8.1804 6.29244 10.5ZM12.8375 10.5C12.8375 11.7887 11.791 12.8333 10.5 12.8333C9.20902 12.8333 8.16247 11.7887 8.16247 10.5C8.16247 9.21134 9.20902 8.16667 10.5 8.16667C11.791 8.16667 12.8375 9.21134 12.8375 10.5Z" fill="#023E73"/>
</svg>
