<svg width="24" height="24" viewBox="0 0 24 24" fill="none" xmlns="http://www.w3.org/2000/svg">
<path fill-rule="evenodd" clip-rule="evenodd" d="M13.4138 3.82782C13.0388 3.45289 12.5302 3.24227 11.9998 3.24227C11.4695 3.24227 10.9609 3.45289 10.5858 3.82782L9.91382 4.49979L11.4818 6.06771C11.8209 5.97734 12.1779 5.97771 12.5168 6.06877C12.8557 6.15984 13.1648 6.33839 13.413 6.58655C13.6611 6.8347 13.8397 7.14373 13.9308 7.48265C14.0218 7.82158 14.0222 8.17848 13.9318 8.51759L15.9818 10.5675C16.4071 10.4535 16.8581 10.483 17.2649 10.6515C17.6717 10.8199 18.0115 11.1179 18.2316 11.4992C18.4518 11.8804 18.54 12.3237 18.4825 12.7602C18.4251 13.1967 18.2252 13.602 17.9138 13.9134C17.6025 14.2247 17.1972 14.4246 16.7606 14.482C16.3241 14.5395 15.8808 14.4513 15.4996 14.2311C15.1183 14.011 14.8203 13.6712 14.6518 13.2644C14.4834 12.8577 14.4538 12.4067 14.5678 11.9814L12.9998 10.4135V15.2673C13.3811 15.4874 13.679 15.8272 13.8475 16.2339C14.016 16.6406 14.0455 17.0916 13.9316 17.5168C13.8176 17.942 13.5666 18.3178 13.2173 18.5858C12.868 18.8538 12.4401 18.9991 11.9998 18.9991C11.5596 18.9991 11.1316 18.8538 10.7824 18.5858C10.4331 18.3178 10.182 17.942 10.0681 17.5168C9.95411 17.0916 9.98366 16.6406 10.1521 16.2339C10.3206 15.8272 10.6186 15.4874 10.9998 15.2673V9.73153C10.6184 9.51142 10.3204 9.1716 10.1519 8.76479C9.98335 8.35799 9.95381 7.90695 10.0678 7.48164L8.49982 5.91372L3.82782 10.5855C3.45288 10.9605 3.24225 11.4691 3.24225 11.9994C3.24225 12.5297 3.45288 13.0383 3.82782 13.4134L10.5858 20.171C10.9609 20.546 11.4695 20.7566 11.9998 20.7566C12.5302 20.7566 13.0388 20.546 13.4138 20.171L20.1718 13.4134C20.5468 13.0383 20.7574 12.5297 20.7574 11.9994C20.7574 11.4691 20.5468 10.9605 20.1718 10.5855L13.4138 3.82782ZM9.17182 2.41389C9.92193 1.66404 10.9392 1.2428 11.9998 1.2428C13.0605 1.2428 14.0777 1.66404 14.8278 2.41389L21.5858 9.17156C22.3357 9.92163 22.757 10.9388 22.757 11.9994C22.757 13.06 22.3357 14.0772 21.5858 14.8273L14.8278 21.585C14.0777 22.3348 13.0605 22.756 11.9998 22.756C10.9392 22.756 9.92193 22.3348 9.17182 21.585L2.41382 14.8273C1.66394 14.0772 1.24268 13.06 1.24268 11.9994C1.24268 10.9388 1.66394 9.92163 2.41382 9.17156L9.17182 2.41389Z" fill="#023E73"/>
</svg>
