<svg width="35" height="35" viewBox="0 0 35 35" fill="none" xmlns="http://www.w3.org/2000/svg">
<path d="M11.6665 25.45C11.6665 25.8919 12.0247 26.25 12.4665 26.25H29.825C30.2668 26.25 30.625 25.8919 30.625 25.45V24.1335C30.625 23.6917 30.2668 23.3335 29.825 23.3335H12.4665C12.0247 23.3335 11.6665 23.6917 11.6665 24.1335V25.45ZM11.6665 16.7001C11.6665 17.142 12.0247 17.5001 12.4665 17.5001H29.825C30.2668 17.5001 30.625 17.142 30.625 16.7001V15.3836C30.625 14.9418 30.2668 14.5836 29.825 14.5836H12.4665C12.0247 14.5836 11.6665 14.9418 11.6665 15.3836V16.7001ZM12.4665 5.83337C12.0247 5.83337 11.6665 6.19155 11.6665 6.63337V7.94992C11.6665 8.39174 12.0247 8.74992 12.4665 8.74992H29.825C30.2668 8.74992 30.625 8.39174 30.625 7.94992V6.63337C30.625 6.19155 30.2668 5.83337 29.825 5.83337H12.4665ZM4.375 25.45C4.375 25.8919 4.73317 26.25 5.175 26.25H7.94995C8.39178 26.25 8.74995 25.8919 8.74995 25.45V24.1335C8.74995 23.6917 8.39178 23.3335 7.94995 23.3335H5.175C4.73317 23.3335 4.375 23.6917 4.375 24.1335V25.45ZM4.375 16.7001C4.375 17.142 4.73317 17.5001 5.175 17.5001H7.94995C8.39178 17.5001 8.74995 17.142 8.74995 16.7001V15.3836C8.74995 14.9418 8.39178 14.5836 7.94995 14.5836H5.175C4.73317 14.5836 4.375 14.9418 4.375 15.3836V16.7001ZM4.375 7.94992C4.375 8.39174 4.73317 8.74992 5.175 8.74992H7.94995C8.39178 8.74992 8.74995 8.39174 8.74995 7.94992V6.63337C8.74995 6.19155 8.39178 5.83337 7.94995 5.83337H5.175C4.73317 5.83337 4.375 6.19155 4.375 6.63337V7.94992Z" fill="#023E73"/>
</svg>
