<svg width="30" height="30" viewBox="0 0 30 30" fill="none" xmlns="http://www.w3.org/2000/svg">
<path fill-rule="evenodd" clip-rule="evenodd" d="M20.8483 14.4527C22.8352 13.5227 24.2116 11.5054 24.2116 9.16659C24.2116 5.94492 21.5999 3.33325 18.3783 3.33325C15.1566 3.33325 12.5449 5.94492 12.5449 9.16659C12.5449 11.493 13.9068 13.5013 15.8768 14.4379C11.5418 15.5328 8.3335 19.4587 8.3335 24.1339C8.3335 24.5941 8.70659 24.9672 9.16682 24.9672H27.5002C27.9604 24.9672 28.3335 24.5941 28.3335 24.1339C28.3335 19.4796 25.1538 15.5679 20.8483 14.4527ZM11.7041 5.27223C11.9764 5.27223 12.2434 5.2946 12.5035 5.33763C11.742 6.42113 11.2949 7.74165 11.2949 9.1666C11.2949 11.1408 12.1611 12.9588 13.5881 14.1993C9.95905 15.7799 7.42422 19.2638 7.11529 23.3005H4.02794C3.64441 23.3005 3.3335 22.9896 3.3335 22.6061C3.3335 18.7101 6.00705 15.4386 9.61957 14.5261C7.97791 13.7456 6.84302 12.072 6.84302 10.1333C6.84302 7.44862 9.01941 5.27223 11.7041 5.27223Z" fill="#023E73"/>
</svg>
