<svg width="30" height="30" viewBox="0 0 30 30" fill="none" xmlns="http://www.w3.org/2000/svg">
<g id="Iconly/Bold/Profile">
<g id="Profile">
<path id="Profile_2" fill-rule="evenodd" clip-rule="evenodd" d="M21.5675 9.25044C21.5675 12.9786 18.6287 16.0009 15.0034 16.0009C11.3781 16.0009 8.43926 12.9786 8.43926 9.25044C8.43926 5.52228 11.3781 2.5 15.0034 2.5C18.6287 2.5 21.5675 5.52228 21.5675 9.25044ZM20.6375 19.8043C22.7246 20.2269 24.0872 20.9164 24.6712 22.0285C25.1098 22.8964 25.1098 23.9297 24.6712 24.7976C24.0872 25.9097 22.7787 26.6437 20.6159 27.0218C19.6522 27.2161 18.6766 27.3425 17.6961 27.3999C16.7877 27.5 15.8793 27.5 14.9601 27.5H13.3056C12.9595 27.4555 12.6243 27.4333 12.2999 27.4333C11.3193 27.3828 10.3436 27.2602 9.38008 27.0663C7.29297 26.6659 5.93039 25.9542 5.34643 24.8421C5.121 24.4113 5.00216 23.93 5.00038 23.4408C4.99568 22.9486 5.11094 22.4631 5.33562 22.0285C5.90876 20.9164 7.27134 20.1935 9.38008 19.8043C10.3478 19.6143 11.3269 19.4917 12.3107 19.4373C14.1103 19.2923 15.9181 19.2923 17.7177 19.4373C18.6977 19.4944 19.673 19.617 20.6375 19.8043Z" fill="#023E73"/>
</g>
</g>
</svg>
