<svg width="30" height="30" viewBox="0 0 30 30" fill="none" xmlns="http://www.w3.org/2000/svg">
<g id="Iconly/Bold/Setting">
<g id="Setting">
<path id="Setting_2" fill-rule="evenodd" clip-rule="evenodd" d="M24.6692 13.8267C24.0054 15.0004 24.4192 16.4867 25.6067 17.1642C26.8054 17.8504 27.2179 19.3517 26.5442 20.5379L25.6929 21.9517C25.2429 22.7254 24.4054 23.2017 23.5054 23.2017C23.0554 23.2017 22.6054 23.0879 22.2317 22.8629C21.8304 22.6504 21.3942 22.5254 20.9554 22.5254C20.2804 22.5254 19.6304 22.7892 19.1567 23.2629C18.6679 23.7267 18.4054 24.3629 18.4054 25.0254C18.4054 26.3879 17.2692 27.5004 15.8554 27.5004H14.1442C13.4679 27.5004 12.8304 27.2254 12.3679 26.7629C11.8929 26.2879 11.6442 25.6629 11.6442 25.0129C11.6442 23.6379 10.5179 22.5254 9.10666 22.5254C8.6429 22.5254 8.1929 22.6504 7.80541 22.8892C7.21791 23.2129 6.5179 23.3004 5.86791 23.1379C5.21791 22.9629 4.65541 22.5379 4.31791 21.9754L3.51916 20.563C3.14291 19.9767 3.03041 19.2754 3.20666 18.6129C3.38041 17.9504 3.83166 17.3879 4.44291 17.0504C4.83166 16.8379 5.15541 16.5254 5.38041 16.1379C6.03166 14.9629 5.61791 13.4879 4.44291 12.8004C3.25541 12.1254 2.84291 10.6379 3.51916 9.46295L4.31791 8.06295C4.65541 7.4767 5.21791 7.05045 5.8804 6.87545C6.54416 6.70045 7.24291 6.7992 7.83041 7.13795C8.23041 7.35045 8.6679 7.46295 9.10666 7.46295C9.78165 7.46295 10.4304 7.20045 10.9054 6.73795C11.3804 6.27545 11.6442 5.63795 11.6442 4.98795C11.6442 3.61295 12.7804 2.50045 14.1929 2.50045H15.8929C16.5804 2.48795 17.2317 2.7367 17.7179 3.21295C18.2067 3.6742 18.4679 4.31295 18.4679 4.98795C18.4679 6.36295 19.6054 7.4767 21.0192 7.4767C21.4554 7.4767 21.8929 7.35045 22.2817 7.13795C23.4929 6.4867 25.0054 6.90045 25.6929 8.06295L26.5442 9.52545C26.7567 9.90045 26.8804 10.3254 26.8804 10.7629C26.8804 11.6504 26.3942 12.4767 25.6067 12.9129C25.2179 13.1254 24.8929 13.4504 24.6692 13.8267ZM15.0442 18.4504C15.9817 18.4629 16.8567 18.1017 17.5179 17.4504C18.1804 16.8129 18.5554 15.9379 18.5554 15.0254C18.5679 13.6379 17.7054 12.3754 16.3942 11.8517C15.0817 11.3129 13.5679 11.6004 12.5554 12.5879C11.5554 13.5629 11.2429 15.0504 11.7929 16.3267C12.3317 17.6129 13.6054 18.4504 15.0304 18.4504H15.0442Z" fill="#023E73"/>
</g>
</g>
</svg>
