<svg width="30" height="30" viewBox="0 0 30 30" fill="none" xmlns="http://www.w3.org/2000/svg">
<path fill-rule="evenodd" clip-rule="evenodd" d="M9.12395 12.6951L15.4569 6.50552C16.2703 5.71055 16.3135 4.37653 15.5533 3.52589C14.7932 2.67525 13.5176 2.63013 12.7042 3.42509L3.92282 12.0076C3.89773 12.0323 3.89773 12.0323 3.87296 12.0573C2.54359 13.4111 2.51529 15.6355 3.80975 17.0258L12.6363 26.5055C13.413 27.3396 14.6892 27.3574 15.4868 26.5451C16.2845 25.7329 16.3015 24.3982 15.5248 23.5641L9.3304 16.9113H25.127C26.2403 16.9113 27.1428 15.9675 27.1428 14.8032C27.1428 13.6389 26.2403 12.6951 25.127 12.6951H9.12395Z" fill="#023E73"/>
</svg>
